<?xml version="1.0" encoding="utf-8"?>
<!-- Generator: Adobe Illustrator 22.0.1, SVG Export Plug-In . SVG Version: 6.00 Build 0)  -->
<svg version="1.1" id="Camada_1" xmlns="http://www.w3.org/2000/svg" xmlns:xlink="http://www.w3.org/1999/xlink" x="0px" y="0px"
	 viewBox="0 0 230.3 101.8" style="enable-background:new 0 0 230.3 101.8;" xml:space="preserve">
<style type="text/css">
	.st0{fill-rule:evenodd;clip-rule:evenodd;fill:#F2933F;}
	.st1{fill-rule:evenodd;clip-rule:evenodd;fill:#EB6625;}
	.st2{fill-rule:evenodd;clip-rule:evenodd;fill:#ABAF55;}
	.st3{fill-rule:evenodd;clip-rule:evenodd;fill:#B8BC5B;}
	.st4{fill-rule:evenodd;clip-rule:evenodd;fill:#D05C20;}
	.st5{fill-rule:evenodd;clip-rule:evenodd;fill:#D9D9D9;}
	.st6{fill-rule:evenodd;clip-rule:evenodd;fill:#C6C6C5;}
	.st7{fill:#B8BC5B;}
	.st8{fill:#9C9B9B;}
</style>
<g>
	<g>
		<path class="st0" d="M33.8,40.3c5.6,14.9-1.2,30.6-10.4,42.4l-0.4,0.5l1.1,0.9l0.4-0.5c4.9-6,8.3-11.6,15.3-15.8
			c4.4-2.7,9.2-4,14.3-4.3c3.7-0.2,7.5-0.7,11.1-1.7l1.7-0.5l-1.5-0.8c-4.9-2.7-7.8-7.7-9.5-12.8c-3.9-11.5-15-16.3-26.4-17.2
			l-1.6-0.1l1,1.3C30.9,34.3,32.6,37.2,33.8,40.3L33.8,40.3z"/>
		<path class="st1" d="M6,36c-2.4,5-3.9,10.4-4.4,16c-1.1,11,1.6,22.7,8.7,31.4c5.4,6.6,9.1,6.5,14.3,0.2
			C34,71.4,40.9,55.2,35.1,39.8c-1-2.5-4.3-7.8-4.2-7.8c-7.7-0.6-16.1-0.1-23.1,3.1L6,36z"/>
		<path class="st2" d="M64.7,61.8c5.3,2.9,11.4,2.5,17,0.9c15.6-4.6,23.6-15.3,17.6-31.3c-1.8-4.8-4.6-9.2-8.1-13
			c-14-15-36.9-17.6-55.6-10.7C22.8,12.4,12.6,22.1,6.9,34.2l-0.3,0.6L6,36c5.7-10,7.4-9.7,12.2-14c0.5-0.5,1.1-0.9,1.7-1.4
			c13.8-11.1,33.9-15.3,50-6.5c4,2.2,7.5,5.1,10.4,8.7c4.4,5.4,6.9,12.1,5.5,19C83.7,52,74.3,58,64.8,60.5L63.1,61L64.7,61.8z"/>
		<path class="st3" d="M29.3,32c10.8,0.8,21.5,5.3,25.2,16.2c1.8,5.5,4.9,10.8,10.2,13.6l0.2,0.1l0.3-0.1c10-2.6,19.8-9.1,21.9-19.8
			c1.5-7.4-1.1-14.5-5.8-20.2c-3-3.7-6.7-6.7-10.8-9c-16.6-9-37.3-4.8-51.6,6.7c-0.6,0.5-1.2,0.9-1.7,1.4l-0.7,0.6l0.8,0.5
			c4.4,2.5,8.3,5.7,11.5,9.6l0.2,0.2L29.3,32z"/>
		<path class="st4" d="M6,36l1.8-0.8c7.1-3.2,15.5-3.7,23.1-3.1c-3.5-4.8-8-8.5-13.3-11.5C12.7,25,8.8,30,6,36L6,36z"/>
		<path class="st5" d="M43.1,87.5c-1.8-5.6-1.5-6.6,4.5-5.5c6.1,1.2,5.9,2.2,2.2,6.7C46.1,93.3,44.9,93,43.1,87.5L43.1,87.5z"/>
		<path class="st6" d="M33.3,93.5c-9.3-2.2-10.5-3.5-3.8-10.9c6.7-7.4,8.2-6.3,11.3,2.7C43.9,94.2,42.5,95.7,33.3,93.5L33.3,93.5z"
			/>
	</g>
	<g>
		<path class="st7" d="M117.6,10.5c0,5.6,14,3.5,14,12c0,4.8-4,7-9.1,7c-4.4,0-7.7-2.1-9.1-3.8c-0.3-0.4-0.4-0.6-0.4-1
			c0-0.8,0.7-1.5,1.5-1.5c0.3,0,0.7,0.1,1.2,0.5c1.7,1.6,3.8,2.6,6.8,2.6c3,0,5.7-1,5.7-3.8c0-5.5-14-3.3-14-12
			c0-4.4,3.6-6.4,8.2-6.4c3.6,0,6.5,1.2,8.1,3.4c0.2,0.2,0.4,0.5,0.4,1c0,0.8-0.7,1.5-1.5,1.5c-0.3,0-0.7-0.1-1.1-0.5
			c-1.4-1.4-3-2.2-5.8-2.2C120,7.3,117.6,8.1,117.6,10.5z"/>
		<path class="st7" d="M145.2,4.1c8.5,0,10.2,6.7,10.2,10.4c0,1.5,0,3.4-2.1,3.4h-15.6c0,5.3,3,8.7,8.1,8.7c3.1,0,4.9-1.2,6.4-2.3
			c0.3-0.2,0.5-0.3,1-0.3c0.9,0,1.5,0.7,1.5,1.5c0,0.6-0.3,0.9-0.6,1.2c-0.8,0.8-3.6,3-8.3,3c-7.1,0-11.5-3.9-11.5-12.8
			C134.2,8.6,138.3,4.1,145.2,4.1z M145.2,7.1c-4.6,0-7.2,3-7.5,7.7H152C152,11,150.7,7.1,145.2,7.1z"/>
		<path class="st7" d="M179.4,13.5v14.2c0,1-0.7,1.7-1.7,1.7c-1,0-1.7-0.7-1.7-1.7V14.1c0-4.2-1.2-7.1-6.4-7.1
			c-5.3,0-7.1,3.2-7.1,7.4v13.1c0,1-0.7,1.7-1.7,1.7c-1,0-1.7-0.7-1.7-1.7V6.1c0-1,0.7-1.7,1.7-1.7c1,0,1.7,0.7,1.7,1.7v1.7
			c1-2,3.6-3.7,7.1-3.7C177.8,4.1,179.4,8.9,179.4,13.5z"/>
		<path class="st7" d="M204.6,13.5v14.2c0,1-0.7,1.7-1.7,1.7c-1,0-1.7-0.7-1.7-1.7V14.1c0-4.2-1.2-7.1-6.4-7.1
			c-5.3,0-7.1,3.2-7.1,7.4v13.1c0,1-0.7,1.7-1.7,1.7c-1,0-1.7-0.7-1.7-1.7V6.1c0-1,0.7-1.7,1.7-1.7c1,0,1.7,0.7,1.7,1.7v1.7
			c1-2,3.6-3.7,7.1-3.7C203,4.1,204.6,8.9,204.6,13.5z"/>
		<path class="st7" d="M218.8,4.1c8.5,0,10.2,6.7,10.2,10.4c0,1.5,0,3.4-2.1,3.4h-15.6c0,5.3,3,8.7,8.1,8.7c3.1,0,4.9-1.2,6.4-2.3
			c0.3-0.2,0.5-0.3,1-0.3c0.9,0,1.5,0.7,1.5,1.5c0,0.6-0.3,0.9-0.6,1.2c-0.8,0.8-3.6,3-8.3,3c-7.1,0-11.5-3.9-11.5-12.8
			C207.8,8.6,211.8,4.1,218.8,4.1z M218.8,7.1c-4.6,0-7.2,3-7.5,7.7h14.4C225.6,11,224.3,7.1,218.8,7.1z"/>
		<path class="st7" d="M118.2,34.6v30.3c0,2.1,0.7,3,2.1,3c0.9,0,1.6,0.7,1.6,1.6c0,0.9-0.7,1.6-1.6,1.6c-3.6,0-5.6-2.1-5.6-6.2
			V34.6c0-0.9,0.8-1.7,1.7-1.7C117.4,32.9,118.2,33.7,118.2,34.6z"/>
		<path class="st7" d="M126.2,39.2c0-1.5,0.7-2.1,2-2.1c1.3,0,2,0.6,2,2.1c0,1.3-0.7,2-2,2C127,41.2,126.2,40.4,126.2,39.2z
			 M129.9,69.4c0,1-0.7,1.7-1.7,1.7c-1,0-1.7-0.7-1.7-1.7V47.9c0-1,0.7-1.7,1.7-1.7c1,0,1.7,0.7,1.7,1.7V69.4z"/>
		<path class="st7" d="M135.4,58.6c0-8.7,4.1-12.8,10.9-12.8c6.1,0,10.5,3.5,10.5,10.5v23.4c0,1-0.7,1.7-1.7,1.7s-1.7-0.7-1.7-1.7
			V67.9c-1.2,1.7-3.8,3.5-7.3,3.5C139.2,71.4,135.4,67.4,135.4,58.6z M153.4,56.3c0-5-2.9-7.4-7-7.4c-4.9,0-7.5,3.1-7.5,9.7
			c0,6.5,2.7,9.7,7.5,9.7c5,0,7-4.7,7-4.7V56.3z"/>
		<path class="st7" d="M166.1,47.9v13.9c0,3.5,1.1,6.4,6.5,6.4c5.4,0,6.5-3,6.5-6.4V47.9c0-1,0.8-1.7,1.8-1.7c0.9,0,1.7,0.7,1.7,1.7
			v13.9c0,5-1.7,9.7-9.9,9.7c-8.2,0-9.9-4.6-9.9-9.7V47.9c0-1,0.7-1.7,1.7-1.7C165.3,46.2,166.1,46.9,166.1,47.9z"/>
		<path class="st7" d="M209.9,58.6c0,8.7-4.3,12.8-11.2,12.8c-6.9,0-11.2-4.1-11.2-12.8c0-8.7,4.3-12.7,11.2-12.7
			C205.7,45.9,209.9,49.9,209.9,58.6z M206.5,58.6c0-6.7-2.8-9.7-7.7-9.7c-4.9,0-7.7,3-7.7,9.7c0,6.8,2.8,9.7,7.7,9.7
			C203.6,68.3,206.5,65.4,206.5,58.6z"/>
		<path class="st7" d="M218.8,50.2c1.1-2.4,3.7-4.2,7.4-4.2c0.9,0,1.7,0.7,1.7,1.6s-0.7,1.6-1.7,1.6c-4.9,0-7.4,3.4-7.4,8.3v11.9
			c0,1-0.7,1.7-1.7,1.7c-1,0-1.7-0.7-1.7-1.7V47.9c0-1,0.7-1.7,1.7-1.7c1,0,1.7,0.7,1.7,1.7V50.2z"/>
	</g>
	<g>
		<path class="st8" d="M119.2,87V82c0-0.3,0.3-0.6,0.6-0.6s0.6,0.3,0.6,0.6v8.9c0,2.4-1.5,3.5-3.5,3.5c-2.3,0-3.7-1.4-3.7-4.3
			s1.3-4.3,3.6-4.3C117.9,85.8,118.8,86.4,119.2,87z M119.2,88.4c0,0-0.7-1.6-2.4-1.6c-1.6,0-2.5,1.1-2.5,3.3c0,2.2,0.9,3.3,2.5,3.3
			c1.4,0,2.4-0.8,2.4-2.5V88.4z"/>
		<path class="st8" d="M126.1,83.5c0-0.5,0.3-0.7,0.7-0.7s0.7,0.2,0.7,0.7c0,0.4-0.3,0.7-0.7,0.7S126.1,84,126.1,83.5z M127.4,93.7
			c0,0.3-0.3,0.6-0.6,0.6s-0.6-0.3-0.6-0.6v-7.3c0-0.3,0.3-0.6,0.6-0.6s0.6,0.3,0.6,0.6V93.7z"/>
		<path class="st8" d="M134.2,87.8c-0.2,0.2-0.3,0.3-0.5,0.3c-0.3,0-0.5-0.2-0.5-0.5c0-0.1,0-0.2,0.1-0.3c0.5-0.8,1.5-1.4,3-1.4
			c2.1,0,3.2,1.2,3.2,3v4.9c0,0.3-0.3,0.6-0.6,0.6s-0.6-0.3-0.6-0.6v-0.6c-0.4,0.8-1.5,1.3-2.6,1.3c-1.9,0-3.1-0.9-3.1-2.6
			c0-1.6,1.2-2.5,3.1-2.5h2.5v-0.5c0-1.2-0.8-2-2.1-2C135.4,86.9,134.8,87.2,134.2,87.8z M138.4,91.1v-0.8h-2.5c-1.2,0-2,0.5-2,1.5
			c0,0.9,0.6,1.5,2,1.5C137.2,93.4,138.4,92.6,138.4,91.1z"/>
		<path class="st8" d="M150.2,86.2c0.3-0.6,0.7-1,1.6-1c0.3,0,0.5,0.2,0.5,0.5c0,0.3-0.2,0.5-0.5,0.5c-0.5,0-0.7,0.3-0.9,0.6
			c0.4,0.5,0.6,1.2,0.6,1.9c0,1.8-1.2,3-3.3,3c-0.8,0-1.4-0.2-1.9-0.4c-0.2,0.2-0.3,0.4-0.3,0.6c0,0.4,0.3,0.8,1.3,0.8h1.9
			c1.7,0,3.1,0.8,3.1,2.4c0,1.9-1.7,2.6-3.9,2.6c-1.9,0-3.8-0.5-3.8-2.5c0-0.8,0.5-1.5,1.4-1.8c-0.7-0.2-1.1-0.8-1.1-1.4
			c0-0.5,0.3-1,0.7-1.3c-0.4-0.5-0.6-1.2-0.6-1.9c0-1.8,1.2-3,3.3-3C149,85.8,149.7,86,150.2,86.2z M149.2,93.8h-1.9
			c-1,0.2-1.5,0.7-1.5,1.4c0,1.1,1.3,1.5,2.7,1.5c1.4,0,2.7-0.4,2.7-1.6C151.1,94.2,150.3,93.8,149.2,93.8z M150.4,88.8
			c0-1.2-0.8-2-2.1-2c-1.4,0-2.1,0.8-2.1,2c0,1.2,0.8,2,2.1,2C149.6,90.8,150.4,90,150.4,88.8z"/>
		<path class="st8" d="M164.3,89v4.8c0,0.3-0.3,0.6-0.6,0.6s-0.6-0.3-0.6-0.6v-4.5c0-1.4-0.4-2.4-2.2-2.4c-1.8,0-2.4,1.1-2.4,2.5
			v4.4c0,0.3-0.3,0.6-0.6,0.6s-0.6-0.3-0.6-0.6v-7.3c0-0.3,0.3-0.6,0.6-0.6s0.6,0.3,0.6,0.6V87c0.3-0.7,1.2-1.3,2.4-1.3
			C163.8,85.8,164.3,87.4,164.3,89z"/>
		<path class="st8" d="M177.1,90.1c0,2.9-1.4,4.3-3.8,4.3c-2.3,0-3.8-1.4-3.8-4.3s1.5-4.3,3.8-4.3C175.6,85.8,177.1,87.2,177.1,90.1
			z M175.9,90.1c0-2.3-1-3.3-2.6-3.3s-2.6,1-2.6,3.3c0,2.3,1,3.3,2.6,3.3S175.9,92.4,175.9,90.1z M172.4,84.3l1.6-1.9
			c0.1-0.2,0.4-0.3,0.7,0c0.3,0.3,0.3,0.5,0.1,0.7l-1.7,1.8c-0.2,0.2-0.3,0.2-0.5,0C172.3,84.7,172.3,84.5,172.4,84.3z"/>
		<path class="st8" d="M183.4,88c0,1.9,4.7,1.2,4.7,4c0,1.6-1.3,2.4-3.1,2.4c-1.5,0-2.6-0.7-3.1-1.3c-0.1-0.1-0.1-0.2-0.1-0.3
			c0-0.3,0.2-0.5,0.5-0.5c0.1,0,0.3,0,0.4,0.2c0.6,0.6,1.3,0.9,2.3,0.9c1,0,1.9-0.3,1.9-1.3c0-1.8-4.7-1.1-4.7-4
			c0-1.5,1.2-2.2,2.7-2.2c1.2,0,2.2,0.4,2.7,1.1c0.1,0.1,0.1,0.2,0.1,0.3c0,0.3-0.2,0.5-0.5,0.5c-0.1,0-0.2,0-0.4-0.2
			c-0.5-0.5-1-0.8-2-0.8C184.2,86.9,183.4,87.2,183.4,88z"/>
		<path class="st8" d="M194.1,84.2c0-0.3,0.3-0.6,0.6-0.6c0.3,0,0.6,0.3,0.6,0.6V86h1.2c0.3,0,0.5,0.2,0.5,0.5s-0.2,0.5-0.5,0.5
			h-1.2V92c0,0.8,0.4,1.2,1,1.2c0.3,0,0.6,0.2,0.6,0.5s-0.3,0.5-0.6,0.5c-1.4,0-2.2-0.9-2.2-2.3v-4.9h-0.7c-0.3,0-0.5-0.2-0.5-0.5
			s0.2-0.5,0.5-0.5h0.7V84.2z"/>
		<path class="st8" d="M202.2,83.5c0-0.5,0.3-0.7,0.7-0.7s0.7,0.2,0.7,0.7c0,0.4-0.3,0.7-0.7,0.7S202.2,84,202.2,83.5z M203.4,93.7
			c0,0.3-0.3,0.6-0.6,0.6s-0.6-0.3-0.6-0.6v-7.3c0-0.3,0.3-0.6,0.6-0.6s0.6,0.3,0.6,0.6V93.7z"/>
		<path class="st8" d="M212.5,85.8c1.6,0,2.5,0.8,2.8,1.2c0.1,0.1,0.1,0.2,0.1,0.3c0,0.3-0.2,0.5-0.5,0.5c-0.2,0-0.3-0.1-0.4-0.2
			c-0.3-0.3-0.8-0.8-1.9-0.8c-1.7,0-2.5,1.1-2.5,3.3c0,2.2,0.9,3.3,2.5,3.3c1,0,1.7-0.5,2.1-0.8c0.1-0.1,0.2-0.1,0.3-0.1
			c0.3,0,0.5,0.2,0.5,0.5c0,0.2-0.1,0.3-0.2,0.4c-0.4,0.3-1.3,1-2.7,1c-2.3,0-3.7-1.4-3.7-4.3S210.2,85.8,212.5,85.8z"/>
		<path class="st8" d="M227.9,90.1c0,2.9-1.4,4.3-3.8,4.3c-2.3,0-3.8-1.4-3.8-4.3s1.5-4.3,3.8-4.3C226.4,85.8,227.9,87.2,227.9,90.1
			z M226.7,90.1c0-2.3-1-3.3-2.6-3.3c-1.7,0-2.6,1-2.6,3.3c0,2.3,1,3.3,2.6,3.3C225.7,93.4,226.7,92.4,226.7,90.1z"/>
	</g>
</g>
</svg>
